<?xml version="1.0" encoding="UTF-8" standalone="no"?>
<!-- Created with Inkscape (http://www.inkscape.org/) -->

<svg
   width="181mm"
   height="181mm"
   viewBox="0 0 181 181"
   version="1.1"
   id="svg1"
   inkscape:version="1.3 (0e150ed6c4, 2023-07-21)"
   sodipodi:docname="emblema_forras.svg"
   xmlns:inkscape="http://www.inkscape.org/namespaces/inkscape"
   xmlns:sodipodi="http://sodipodi.sourceforge.net/DTD/sodipodi-0.dtd"
   xmlns:xlink="http://www.w3.org/1999/xlink"
   xmlns="http://www.w3.org/2000/svg"
   xmlns:svg="http://www.w3.org/2000/svg">
  <sodipodi:namedview
     id="namedview1"
     pagecolor="#ffffff"
     bordercolor="#000000"
     borderopacity="0.25"
     inkscape:showpageshadow="2"
     inkscape:pageopacity="0.0"
     inkscape:pagecheckerboard="0"
     inkscape:deskcolor="#d1d1d1"
     inkscape:document-units="mm"
     inkscape:zoom="0.97890838"
     inkscape:cx="267.64507"
     inkscape:cy="348.85798"
     inkscape:window-width="1920"
     inkscape:window-height="991"
     inkscape:window-x="-9"
     inkscape:window-y="-9"
     inkscape:window-maximized="1"
     inkscape:current-layer="layer1" />
  <defs
     id="defs1">
    <pattern
       inkscape:collect="always"
       xlink:href="#Strips1_2"
       preserveAspectRatio="xMidYMid"
       id="pattern13"
       patternTransform="matrix(0,1.3,-1.3,0,-13.013511,-6.8976681)"
       x="0"
       y="0" />
    <pattern
       inkscape:collect="always"
       patternUnits="userSpaceOnUse"
       width="3"
       height="1"
       patternTransform="translate(0,0) scale(2,2)"
       preserveAspectRatio="xMidYMid"
       id="Strips1_2"
       style="fill:#000000"
       inkscape:stockid="Stripes 03 (1:2)"
       inkscape:isstock="true"
       inkscape:label="Csíkok 03 (1:2)">
      <rect
         style="stroke:none"
         x="0"
         y="-0.5"
         width="1"
         height="2"
         id="rect146" />
    </pattern>
  </defs>
  <g
     inkscape:label="Réteg 1"
     inkscape:groupmode="layer"
     id="layer1">
    <circle
       style="font-variation-settings:'wght' 200;fill:#fefefe;stroke:#000000;stroke-width:0.5;stroke-dasharray:none"
       id="path1"
       cx="90.5"
       cy="90.5"
       r="90" />
    <path
       id="path2"
       style="font-variation-settings:'wght' 200;fill:#000000;fill-opacity:1;stroke:#000000;stroke-width:0;stroke-dasharray:none"
       d="M 90.499748,4.264187 A 86.235832,86.235832 0 0 0 4.264179,90.499744 86.235832,86.235832 0 0 0 90.499748,176.73582 86.235832,86.235832 0 0 0 176.73583,90.499744 86.235832,86.235832 0 0 0 90.499748,4.264187 Z m 0,19.235519 A 67,67 0 0 1 157.49979,90.499744 67,67 0 0 1 90.499748,157.49978 67,67 0 0 1 23.500215,90.499744 67,67 0 0 1 90.499748,23.499706 Z" />
    <circle
       style="font-variation-settings:'wght' 200;fill:none;fill-opacity:1;stroke:#000000;stroke-width:2;stroke-dasharray:none"
       id="path3"
       cx="90.5"
       cy="90.5"
       r="64.160973" />
    <circle
       style="font-variation-settings:'wght' 200;fill:url(#pattern13);fill-opacity:1;stroke:none;stroke-width:2.82544;stroke-dasharray:none;stroke-opacity:1"
       id="path5"
       cx="90.5"
       cy="90.5"
       r="50" />
    <circle
       style="font-variation-settings:'wght' 200;fill:none;fill-opacity:1;stroke:#000000;stroke-width:1.62674;stroke-dasharray:none"
       id="path3-5"
       cx="90.5"
       cy="90.5"
       r="52.18663" />
    <path
       d="m 15.347997,74.030248 q 2.159762,0.38899 3.541597,1.25677 1.383421,0.85896 1.952767,2.14467 0.56212,1.27532 0.263629,2.93262 l -0.546181,3.03249 -12.888091,-2.32128 0.579525,-3.21762 q 0.28579,-1.58677 1.198302,-2.56008 0.914106,-0.98213 2.40132,-1.30586 1.487224,-0.32372 3.497132,0.0383 z m -0.344259,2.56828 q -1.445728,-0.26038 -2.420565,-0.1538 -0.974835,0.10656 -1.514041,0.57373 -0.537621,0.45835 -0.682111,1.26055 l -0.126996,0.70523 8.57737,1.54488 0.09681,-0.53774 q 0.241342,-1.33994 -0.730223,-2.16113 -0.96998,-0.83 -3.200267,-1.2317 z m 20.602319,-29.74637 -2.903352,-1.40535 -1.792762,2.29357 2.064899,2.47804 -1.660377,2.12421 -8.364842,-10.56291 2.002376,-2.56174 12.303402,5.52409 z m -4.862493,-2.44785 -3.166896,-1.57725 q -0.382881,-0.20832 -0.751633,-0.40561 -0.363246,-0.20434 -0.698257,-0.38662 -0.336563,-0.19486 -0.625258,-0.36367 0.230458,0.21424 0.493759,0.48826 0.263301,0.27403 0.543805,0.58423 0.280494,0.31021 0.557025,0.64003 l 2.329089,2.70729 z m 33.937954,-19.05373 -2.707938,1.18503 -7.174958,-6.83303 -0.06562,0.0287 q 0.304201,0.56107 0.555058,1.06727 0.255462,0.4944 0.450406,0.91752 0.203141,0.41952 0.353971,0.76416 l 2.43471,5.56359 -2.149935,0.94085 -5.25009,-11.997 2.691536,-1.17785 7.075955,6.65148 0.06562,-0.0287 q -0.280609,-0.55184 -0.517092,-1.02522 -0.240084,-0.48157 -0.439633,-0.89289 -0.19956,-0.41132 -0.35038,-0.75597 l -2.388038,-5.45691 2.166357,-0.94803 z m 35.12404,-17.26725 -0.79868,8.75066 q -0.1368,1.49858 -0.69101,2.44639 -0.55422,0.94779 -1.50074,1.36509 -0.94572,0.40837 -2.27482,0.28706 -1.93567,-0.17663 -2.88,-1.36019 -0.93459,-1.19163 -0.73104,-3.42166 l 0.8036,-8.8042 2.49764,0.22795 -0.79549,8.71498 q -0.1132,1.2399 0.23047,1.81094 0.34445,0.56211 1.09373,0.6305 0.52634,0.0475 0.88562,-0.14403 0.36905,-0.20016 0.58495,-0.69315 0.2248,-0.49216 0.30215,-1.33957 l 0.79384,-8.69715 z m 37.943642,14.52931 -9.84745,9.23081 -2.43853,-1.57354 4.37583,-12.76156 2.20521,1.42299 -2.68207,7.06396 q -0.14814,0.39478 -0.36646,0.91484 -0.21346,0.51253 -0.44198,1.01534 -0.22366,0.49529 -0.39971,0.85073 0.25884,-0.30202 0.61798,-0.70989 0.37151,-0.41054 0.75055,-0.81622 0.38657,-0.40082 0.6901,-0.706 l 5.34637,-5.34473 z m 9.77626,28.37818 11.01289,-7.08572 1.36189,2.11671 -11.01289,7.08572 z m 11.47695,30.10768 3.02663,-1.11533 -0.40744,-2.88245 -3.21719,-0.23279 -0.37735,-2.66959 13.41036,1.30679 0.45508,3.21946 -12.51524,5.02572 z m 5.13677,-1.8026 3.33329,-1.18582 q 0.41568,-0.13113 0.81363,-0.25975 0.3992,-0.11975 0.76293,-0.23449 0.37384,-0.10712 0.69573,-0.19785 -0.31418,0.0173 -0.6942,0.0168 -0.38002,-6e-4 -0.79804,-0.0138 -0.418,-0.0133 -0.84738,-0.0431 l -3.5656,-0.20155 z"
       id="text1-9"
       style="font-size:18.3444px;font-family:'Open Sans';-inkscape-font-specification:'Open Sans, @wght=700';font-variation-settings:'wght' 700;letter-spacing:7.9375px;fill:#ffffff;fill-opacity:1;stroke-width:1.5"
       aria-label="D A N U V I A" />
    <path
       d="m 36.125702,153.21264 -1.85432,-1.70198 3.87031,-4.21675 -2.38884,-2.19258 -3.8703,4.21676 -1.85433,-1.70196 8.85508,-9.64774 1.85432,1.70197 -3.5069,3.82082 2.38884,2.19257 3.5069,-3.82082 1.85432,1.70196 z m 24.14988,0.32694 -4.06237,7.79161 q -0.6957,1.33434 -1.56837,2.00063 -0.87267,0.66628 -1.90676,0.69281 -1.02996,0.0186 -2.21338,-0.59842 -1.72354,-0.89861 -2.1476,-2.3521 -0.41198,-1.45729 0.62328,-3.44292 l 4.08721,-7.83926 2.22391,1.15949 -4.04581,7.75984 q -0.5756,1.10401 -0.47459,1.76277 0.10514,0.65082 0.77232,0.99866 0.46861,0.24432 0.87395,0.20312 0.41742,-0.045 0.80437,-0.41904 0.39491,-0.36989 0.78829,-1.12445 l 4.03753,-7.74395 z m 15.57994,18.72245 -2.88867,-0.62679 -1.80916,-9.74153 -0.07,-0.0152 q -0.0823,0.6329 -0.17573,1.19007 -0.0827,0.55031 -0.17276,1.0074 -0.0813,0.45898 -0.16104,0.82663 l -1.28776,5.93489 -2.29343,-0.49763 2.77687,-12.79767 2.87116,0.62299 1.83534,9.5364 0.07,0.0152 q 0.096,-0.61159 0.18184,-1.13375 0.0877,-0.5309 0.16706,-0.98114 0.0793,-0.45022 0.15914,-0.81787 l 1.26308,-5.8211 2.31093,0.50143 z m 17.676476,-6.09399 4.08848,-0.20193 0.33669,6.8171 q -0.91231,0.41275 -1.88757,0.64028 -0.96631,0.22709 -1.97724,0.27702 -1.61929,0.08 -2.75138,-0.68918 -1.1236,-0.77855 -1.75296,-2.26308 -0.62038,-1.48498 -0.7229,-3.56053 -0.10118,-2.0487 0.44232,-3.57322 0.55202,-1.53391 1.71018,-2.41619 1.15815,-0.88226 2.8848,-0.96754 0.94831,-0.0468 1.78286,0.14512 0.8341,0.183 1.5053,0.51755 l -0.63109,2.11177 q -0.58129,-0.33001 -1.19892,-0.48784 -0.60869,-0.15827 -1.26177,-0.12601 -0.93936,0.0464 -1.54804,0.61454 -0.6091,0.55923 -0.88037,1.60394 -0.27169,1.03578 -0.19835,2.52088 0.0676,1.36879 0.37742,2.37585 0.31831,0.99768 0.88249,1.52584 0.57309,0.52775 1.41407,0.48618 0.34891,-0.0173 0.66833,-0.0868 0.32836,-0.07 0.60978,-0.18257 l -0.15022,-3.04175 -1.63719,0.0809 z m 22.655362,3.50892 -1.57782,-2.81336 -2.78239,0.85606 0.27652,3.21371 -2.57692,0.79284 -0.82025,-13.44889 3.10771,-0.95615 6.93293,11.56823 z m -2.58865,-4.78902 -1.69569,-3.1051 q -0.19493,-0.38986 -0.38458,-0.7626 -0.18109,-0.37538 -0.35165,-0.71651 -0.16462,-0.35233 -0.30489,-0.65592 0.0665,0.30754 0.12576,0.68291 0.0592,0.37538 0.11194,0.79027 0.0527,0.41488 0.0909,0.8436 l 0.36213,3.55287 z m 12.18011,-13.5632 q 1.24437,-0.74643 2.28282,-0.87842 1.03845,-0.13198 1.871,0.35047 0.84023,0.47783 1.4945,1.56857 0.41468,0.69132 0.58665,1.3611 0.16736,0.66211 0.0736,1.32418 -0.0907,0.64977 -0.44563,1.31182 l 5.27473,3.55219 -2.37353,1.42374 -4.47595,-3.30018 -0.64523,0.38704 2.64013,4.40138 -2.15845,1.29472 -6.73624,-11.23005 z m 1.07664,1.82968 -0.43784,0.26263 1.98125,3.30296 0.48393,-0.29028 q 0.72203,-0.43311 0.8281,-1.09211 0.11372,-0.6636 -0.41611,-1.54695 -0.47458,-0.79118 -1.07674,-0.94179 -0.59446,-0.15522 -1.36259,0.30554 z m 16.39206,-8.17012 -2.47398,-5.02383 1.84976,-1.81092 3.41867,7.9222 3.52783,3.60352 -1.78576,1.74826 -3.4777,-3.55232 -7.898,-3.63724 1.86258,-1.82345 z"
       id="text1"
       style="font-size:18.3444px;font-family:'Open Sans';-inkscape-font-specification:'Open Sans, @wght=700';font-variation-settings:'wght' 700;letter-spacing:7.9375px;fill:#ffffff;fill-opacity:1;stroke-width:1.5"
       aria-label="HUNGARY" />
  </g>
</svg>
